  0
SECTION
  2
HEADER
  9
$ACADVER
  1
AC1009
  9
$INSBASE
 10
0.0
 20
0.0
 30
0.0
  9
$EXTMIN
 10
-0.4257406334698187
 20
-7.49696796168723
 30
0.0
  9
$EXTMAX
 10
23.57425937871017
 20
5.5944692978708872
 30
0.0
  9
$LIMMIN
 10
0.0
 20
0.0
  9
$LIMMAX
 10
12.0
 20
9.0
  9
$ORTHOMODE
 70
     0
  9
$REGENMODE
 70
     1
  9
$FILLMODE
 70
     1
  9
$QTEXTMODE
 70
     0
  9
$MIRRTEXT
 70
     1
  9
$DRAGMODE
 70
     2
  9
$LTSCALE
 40
1.0
  9
$OSMODE
 70
    37
  9
$ATTMODE
 70
     1
  9
$TEXTSIZE
 40
0.1377952756
  9
$TRACEWID
 40
0.05
  9
$TEXTSTYLE
  7
STANDARD
  9
$CLAYER
  8
0
  9
$CELTYPE
  6
BYLAYER
  9
$CECOLOR
 62
   256
  9
$DIMSCALE
 40
1.0
  9
$DIMASZ
 40
0.13
  9
$DIMEXO
 40
0.05
  9
$DIMDLI
 40
0.38
  9
$DIMRND
 40
0.0
  9
$DIMDLE
 40
0.0
  9
$DIMEXE
 40
0.125
  9
$DIMTP
 40
0.0
  9
$DIMTM
 40
0.0
  9
$DIMTXT
 40
0.1377952756
  9
$DIMCEN
 40
0.09
  9
$DIMTSZ
 40
0.0
  9
$DIMTOL
 70
     0
  9
$DIMLIM
 70
     0
  9
$DIMTIH
 70
     1
  9
$DIMTOH
 70
     1
  9
$DIMSE1
 70
     0
  9
$DIMSE2
 70
     0
  9
$DIMTAD
 70
     1
  9
$DIMZIN
 70
     0
  9
$DIMBLK
  1

  9
$DIMASO
 70
     1
  9
$DIMSHO
 70
     1
  9
$DIMPOST
  1

  9
$DIMAPOST
  1

  9
$DIMALT
 70
     0
  9
$DIMALTD
 70
     2
  9
$DIMALTF
 40
25.399999999999999
  9
$DIMLFAC
 40
1.0
  9
$DIMTOFL
 70
     0
  9
$DIMTVP
 40
0.0
  9
$DIMTIX
 70
     0
  9
$DIMSOXD
 70
     0
  9
$DIMSAH
 70
     0
  9
$DIMBLK1
  1

  9
$DIMBLK2
  1

  9
$DIMSTYLE
  2
STANDARD
  9
$DIMCLRD
 70
     0
  9
$DIMCLRE
 70
     0
  9
$DIMCLRT
 70
     0
  9
$DIMTFAC
 40
1.0
  9
$DIMGAP
 40
0.06
  9
$LUNITS
 70
     4
  9
$LUPREC
 70
     4
  9
$SKETCHINC
 40
0.1
  9
$FILLETRAD
 40
0.5
  9
$AUNITS
 70
     0
  9
$AUPREC
 70
     2
  9
$MENU
  1
.
  9
$ELEVATION
 40
0.0
  9
$PELEVATION
 40
0.0
  9
$THICKNESS
 40
0.0
  9
$LIMCHECK
 70
     0
  9
$BLIPMODE
 70
     0
  9
$CHAMFERA
 40
0.0
  9
$CHAMFERB
 40
0.0
  9
$SKPOLY
 70
     0
  9
$TDCREATE
 40
2457820.6050446639
  9
$TDUPDATE
 40
2457820.6124335299
  9
$TDINDWG
 40
0.0031659259
  9
$TDUSRTIMER
 40
0.0031659144
  9
$USRTIMER
 70
     1
  9
$ANGBASE
 50
0.0
  9
$ANGDIR
 70
     0
  9
$PDMODE
 70
     0
  9
$PDSIZE
 40
-1.0
  9
$PLINEWID
 40
0.0
  9
$COORDS
 70
     1
  9
$SPLFRAME
 70
     0
  9
$SPLINETYPE
 70
     6
  9
$SPLINESEGS
 70
     8
  9
$ATTDIA
 70
     1
  9
$ATTREQ
 70
     1
  9
$HANDLING
 70
     1
  9
$HANDSEED
  5
454
  9
$SURFTAB1
 70
     6
  9
$SURFTAB2
 70
     6
  9
$SURFTYPE
 70
     6
  9
$SURFU
 70
     6
  9
$SURFV
 70
     6
  9
$UCSNAME
  2

  9
$UCSORG
 10
0.0
 20
0.0
 30
0.0
  9
$UCSXDIR
 10
1.0
 20
0.0
 30
0.0
  9
$UCSYDIR
 10
0.0
 20
1.0
 30
0.0
  9
$PUCSNAME
  2

  9
$PUCSORG
 10
0.0
 20
0.0
 30
0.0
  9
$PUCSXDIR
 10
1.0
 20
0.0
 30
0.0
  9
$PUCSYDIR
 10
0.0
 20
1.0
 30
0.0
  9
$USERI1
 70
     0
  9
$USERI2
 70
     0
  9
$USERI3
 70
     0
  9
$USERI4
 70
     0
  9
$USERI5
 70
     0
  9
$USERR1
 40
0.0
  9
$USERR2
 40
0.0
  9
$USERR3
 40
0.0
  9
$USERR4
 40
0.0
  9
$USERR5
 40
0.0
  9
$WORLDVIEW
 70
     1
  9
$SHADEDGE
 70
     3
  9
$SHADEDIF
 70
    70
  9
$TILEMODE
 70
     1
  9
$MAXACTVP
 70
    64
  9
$PLIMCHECK
 70
     0
  9
$PEXTMIN
 10
1.0000000000000000E+020
 20
1.0000000000000000E+020
 30
1.0000000000000000E+020
  9
$PEXTMAX
 10
-1.0000000000000000E+020
 20
-1.0000000000000000E+020
 30
-1.0000000000000000E+020
  9
$PLIMMIN
 10
0.0
 20
0.0
  9
$PLIMMAX
 10
12.0
 20
9.0
  9
$UNITMODE
 70
     0
  9
$VISRETAIN
 70
     1
  9
$PLINEGEN
 70
     0
  9
$PSLTSCALE
 70
     1
  0
ENDSEC
  0
SECTION
  2
TABLES
  0
TABLE
  2
VPORT
 70
     1
  0
VPORT
  2
*ACTIVE
 70
     0
 10
0.0
 20
0.0
 11
1.0
 21
1.0
 12
3.6541251346584431
 22
3.0364381781974248
 13
0.0
 23
0.0
 14
0.5
 24
0.5
 15
0.5
 25
0.5
 16
0.0
 26
0.0
 36
1.0
 17
0.0
 27
0.0
 37
0.0
 40
24.032620240214861
 41
1.856313497822931
 42
50.0
 43
0.0
 44
0.0
 50
0.0
 51
0.0
 71
     0
 72
   100
 73
     1
 74
     3
 75
     0
 76
     0
 77
     0
 78
     0
  0
ENDTAB
  0
TABLE
  2
LTYPE
 70
     6
  0
LTYPE
  2
CONTINUOUS
 70
     0
  3
Solid line
 72
    65
 73
     0
 40
0.0
  0
LTYPE
  2
HIDDEN
 70
     0
  3
Hidden __ __ __ __ __ __ __ __ __ __ __ __ __ __
 72
    65
 73
     2
 40
0.075
 49
0.05
 49
-0.025
  0
LTYPE
  2
PHANTOM
 70
     0
  3
Phantom ______  __  __  ______  __  __  ______
 72
    65
 73
     6
 40
0.5
 49
0.25
 49
-0.05
 49
0.05
 49
-0.05
 49
0.05
 49
-0.05
  0
LTYPE
  2
CENTER
 70
     0
  3
Center ____ _ ____ _ ____ _ ____ _ ____ _ ____
 72
    65
 73
     4
 40
0.4
 49
0.25
 49
-0.05
 49
0.05
 49
-0.05
  0
LTYPE
  2
CENTERX2
 70
     0
  3
Center (2x) ________  __  ________  __  _____
 72
    65
 73
     4
 40
0.8
 49
0.5
 49
-0.1
 49
0.1
 49
-0.1
  0
LTYPE
  2
DOT2
 70
     0
  3
Dot (.5x) ........................................
 72
    65
 73
     2
 40
0.025
 49
0.0
 49
-0.025
  0
ENDTAB
  0
TABLE
  2
LAYER
 70
     1
  0
LAYER
  2
0
 70
     0
 62
     7
  6
CONTINUOUS
  0
ENDTAB
  0
TABLE
  2
STYLE
 70
     2
  0
STYLE
  2
STANDARD
 70
     0
 40
0.0
 41
1.0
 50
0.0
 71
     0
 42
0.1377952756
  3
txt
  4

  0
STYLE
  2
SLDTEXTSTYLE0
 70
     0
 40
0.0
 41
0.7
 50
0.0
 71
     0
 42
0.1377952756
  3
TXT
  4

  0
ENDTAB
  0
TABLE
  2
VIEW
 70
     0
  0
ENDTAB
  0
TABLE
  2
UCS
 70
     0
  0
ENDTAB
  0
TABLE
  2
APPID
 70
     6
  0
APPID
  2
ACAD
 70
     0
  0
APPID
  2
ACAD_EXEMPT_FROM_CAD_STANDARDS
 70
     0
  0
APPID
  2
ACAD_NAV_VCDISPLAY
 70
     0
  0
APPID
  2
AECB_HALOED_LINE_OUTLINE_E
 70
     0
  0
APPID
  2
AECB_OSNAP_MEP
 70
     0
  0
APPID
  2
ACAD_MLEADERVER
 70
     0
  0
ENDTAB
  0
TABLE
  2
DIMSTYLE
 70
     2
  0
DIMSTYLE
  2
STANDARD
 70
     0
  3

  4

  5

  6

  7

 40
1.0
 41
0.18
 42
0.0625
 43
0.38
 44
0.18
 45
0.0
 46
0.0
 47
0.0
 48
0.0
140
0.18
141
0.09
142
0.0
143
25.399999999999999
144
1.0
145
0.0
146
1.0
147
0.09
 71
     0
 72
     0
 73
     1
 74
     1
 75
     0
 76
     0
 77
     0
 78
     0
170
     0
171
     2
172
     0
173
     0
174
     0
175
     0
176
     0
177
     0
178
     0
  0
ENDTAB
  0
ENDSEC
  0
SECTION
  2
BLOCKS
  0
BLOCK
  8
0
  2
$MODEL_SPACE
 70
     0
 10
0.0
 20
0.0
 30
0.0
  3
$MODEL_SPACE
  1

  0
ENDBLK
  5
21
  8
0
  0
BLOCK
 67
     1
  8
0
  2
$PAPER_SPACE
 70
     0
 10
0.0
 20
0.0
 30
0.0
  3
$PAPER_SPACE
  1

  0
ENDBLK
  5
1D
 67
     1
  8
0
  0
ENDSEC
  0
SECTION
  2
ENTITIES
  0
CIRCLE
  5
73
  8
0
  6
CONTINUOUS
 62
     7
 10
2.3534542351680821
 20
2.0838767159375711
 30
0.0
 40
0.0885826771653548
  0
CIRCLE
  5
74
  8
0
  6
CONTINUOUS
 62
     7
 10
1.172351872968082
 20
2.0838767159375711
 30
0.0
 40
0.0885826771653544
  0
CIRCLE
  5
75
  8
0
  6
CONTINUOUS
 62
     7
 10
3.062115652468083
 20
2.1035617553375712
 30
0.0
 40
0.0669291338582687
  0
CIRCLE
  5
76
  8
0
  6
CONTINUOUS
 62
     7
 10
0.4636904556680829
 20
2.1035617553375712
 30
0.0
 40
0.0669291338582678
  0
CIRCLE
  5
77
  8
0
  6
CONTINUOUS
 62
     7
 10
2.5503046288680831
 20
0.4450340962375713
 30
0.0
 40
0.0669291338582676
  0
CIRCLE
  5
78
  8
0
  6
CONTINUOUS
 62
     7
 10
1.959753447768082
 20
0.4450340962375713
 30
0.0
 40
0.0669291338582676
  0
CIRCLE
  5
79
  8
0
  6
CONTINUOUS
 62
     7
 10
1.566052660368082
 20
0.4450340962375713
 30
0.0
 40
0.0669291338582676
  0
CIRCLE
  5
7A
  8
0
  6
CONTINUOUS
 62
     7
 10
0.9755014792680828
 20
0.4450340962375713
 30
0.0
 40
0.0669291338582678
  0
LINE
  5
89
  8
0
  6
CONTINUOUS
 62
     7
 10
3.022745573768082
 20
0.2481837024375713
 30
0.0
 11
0.503060534368083
 21
0.2481837024375713
 31
0.0
  0
LINE
  5
8A
  8
0
  6
CONTINUOUS
 62
     7
 10
0.503060534368083
 20
0.2481837024375713
 30
0.0
 11
0.503060534368083
 21
1.6067887636375711
 31
0.0
  0
LINE
  5
8B
  8
0
  6
CONTINUOUS
 62
     7
 10
0.4812972900680829
 20
1.6420024326375711
 30
0.0
 11
0.2969161258680829
 21
1.734193014737571
 31
0.0
  0
LINE
  5
8C
  8
0
  6
CONTINUOUS
 62
     7
 10
0.1880999044680829
 20
1.910261359437571
 30
0.0
 11
0.1880999044680829
 21
2.2216719915375709
 31
0.0
  0
LINE
  5
8D
  8
0
  6
CONTINUOUS
 62
     7
 10
3.140855809968083
 20
2.418522385237571
 30
0.0
 11
0.3849502981680829
 21
2.418522385237571
 31
0.0
  0
LINE
  5
8E
  8
0
  6
CONTINUOUS
 62
     7
 10
3.3377062036680831
 20
1.910261359437571
 30
0.0
 11
3.3377062036680831
 21
2.2216719915375709
 31
0.0
  0
LINE
  5
8F
  8
0
  6
CONTINUOUS
 62
     7
 10
3.228889982368083
 20
1.734193014737571
 30
0.0
 11
3.044508818068083
 21
1.6420024326375711
 31
0.0
  0
LINE
  5
90
  8
0
  6
CONTINUOUS
 62
     7
 10
3.022745573768082
 20
1.6067887636375711
 30
0.0
 11
3.022745573768082
 21
0.2481837024375713
 31
0.0
  0
ARC
  5
91
  8
0
  6
CONTINUOUS
 62
     7
 10
0.4636904556680829
 20
1.6067887636375711
 30
0.0
 40
0.0393700787401577
 50
0.0
 51
63.43494882289999
  0
ARC
  5
92
  8
0
  6
CONTINUOUS
 62
     7
 10
0.3849502981680829
 20
1.910261359437571
 30
0.0
 40
0.1968503937007869
 50
180.0
 51
243.4349488229
  0
ARC
  5
93
  8
0
  6
CONTINUOUS
 62
     7
 10
0.3849502981680829
 20
2.2216719915375709
 30
0.0
 40
0.1968503937007879
 50
90.0
 51
180.0
  0
ARC
  5
94
  8
0
  6
CONTINUOUS
 62
     7
 10
3.140855809968083
 20
2.2216719915375709
 30
0.0
 40
0.1968503937007875
 50
0.0
 51
90.0
  0
ARC
  5
95
  8
0
  6
CONTINUOUS
 62
     7
 10
3.140855809968083
 20
1.910261359437571
 30
0.0
 40
0.1968503937007879
 50
296.56505117709997
 51
0.0
  0
ARC
  5
96
  8
0
  6
CONTINUOUS
 62
     7
 10
3.062115652468083
 20
1.6067887636375711
 30
0.0
 40
0.0393700787401563
 50
116.5650511771
 51
180.0
  0
CIRCLE
  5
36F
  8
0
  6
CONTINUOUS
 62
     7
 10
5.1293098863911482
 20
2.6792311239017219
 30
0.0
 40
0.0885826771653546
  0
CIRCLE
  5
370
  8
0
  6
CONTINUOUS
 62
     7
 10
5.9954516186911482
 20
4.2540342735017216
 30
0.0
 40
0.0885826771653543
  0
CIRCLE
  5
371
  8
0
  6
CONTINUOUS
 62
     7
 10
4.2631681540911481
 20
4.2540342735017216
 30
0.0
 40
0.0885826771653543
  0
CIRCLE
  5
372
  8
0
  6
CONTINUOUS
 62
     7
 10
4.1844279965911468
 20
0.6319870294017225
 30
0.0
 40
0.0669291338582667
  0
CIRCLE
  5
373
  8
0
  6
CONTINUOUS
 62
     7
 10
4.1844279965911468
 20
1.2619082893017219
 30
0.0
 40
0.0669291338582676
  0
CIRCLE
  5
374
  8
0
  6
CONTINUOUS
 62
     7
 10
4.8143492564911483
 20
1.2619082893017219
 30
0.0
 40
0.0669291338582676
  0
CIRCLE
  5
375
  8
0
  6
CONTINUOUS
 62
     7
 10
4.8143492564911483
 20
0.6319870294017225
 30
0.0
 40
0.0669291338582667
  0
CIRCLE
  5
376
  8
0
  6
CONTINUOUS
 62
     7
 10
6.0741917761911468
 20
0.6319870294017225
 30
0.0
 40
0.0669291338582667
  0
CIRCLE
  5
377
  8
0
  6
CONTINUOUS
 62
     7
 10
5.4442705162911471
 20
0.6319870294017225
 30
0.0
 40
0.0669291338582667
  0
CIRCLE
  5
378
  8
0
  6
CONTINUOUS
 62
     7
 10
5.4442705162911471
 20
1.2619082893017219
 30
0.0
 40
0.0669291338582676
  0
CIRCLE
  5
379
  8
0
  6
CONTINUOUS
 62
     7
 10
6.0741917761911468
 20
1.2619082893017219
 30
0.0
 40
0.0669291338582676
  0
LINE
  5
37A
  8
0
  6
CONTINUOUS
 62
     7
 10
6.381278390291147
 20
4.2737193129017221
 30
0.0
 11
6.381278390291147
 21
0.1398610452017222
 31
0.0
  0
ARC
  5
37B
  8
0
  6
CONTINUOUS
 62
     7
 10
5.9875776028911476
 20
4.2737193129017221
 30
0.0
 40
0.393700787401575
 50
0.0
 51
90.0
  0
LINE
  5
37C
  8
0
  6
CONTINUOUS
 62
     7
 10
5.9875776028911476
 20
4.6674201003017224
 30
0.0
 11
4.2710421698911469
 21
4.6674201003017224
 31
0.0
  0
ARC
  5
37D
  8
0
  6
CONTINUOUS
 62
     7
 10
4.2710421698911469
 20
4.2737193129017221
 30
0.0
 40
0.393700787401575
 50
90.0
 51
180.0
  0
LINE
  5
37E
  8
0
  6
CONTINUOUS
 62
     7
 10
3.877341382491148
 20
4.2737193129017221
 30
0.0
 11
3.877341382491148
 21
0.1398610452017222
 31
0.0
  0
LINE
  5
37F
  8
0
  6
CONTINUOUS
 62
     7
 10
6.381278390291147
 20
0.1398610452017222
 30
0.0
 11
3.877341382491148
 21
0.1398610452017222
 31
0.0
  0
POLYLINE
  5
381
  8
0
 66
     1
 10
0.0
 20
0.0
 30
0.0
 70
     1
  0
VERTEX
  5
44F
  8
0
 10
-0.4257406212898332
 20
-0.4055307021291128
 30
0.0
  0
VERTEX
  5
450
  8
0
 10
23.57425937871017
 20
-0.4055307021291128
 30
0.0
  0
VERTEX
  5
451
  8
0
 10
23.57425937871017
 20
5.5944692978708872
 30
0.0
  0
VERTEX
  5
452
  8
0
 10
-0.4257406212898332
 20
5.5944692978708872
 30
0.0
  0
SEQEND
  5
453
  8
0
  0
CIRCLE
  5
3C0
  8
0
  6
CONTINUOUS
 62
     7
 10
12.360692962921741
 20
0.6116841590301592
 30
0.0
 40
0.0885826771653537
  0
CIRCLE
  5
3C1
  8
0
  6
CONTINUOUS
 62
     7
 10
11.57329138812174
 20
0.6116841590301592
 30
0.0
 40
0.0885826771653555
  0
CIRCLE
  5
3C2
  8
0
  6
CONTINUOUS
 62
     7
 10
11.57329138812174
 20
2.1864873086301602
 30
0.0
 40
0.0885826771653537
  0
CIRCLE
  5
3C3
  8
0
  6
CONTINUOUS
 62
     7
 10
12.360692962921741
 20
2.1864873086301602
 30
0.0
 40
0.0885826771653537
  0
CIRCLE
  5
3C4
  8
0
  6
CONTINUOUS
 62
     7
 10
8.1342058266217379
 20
0.5329440015301606
 30
0.0
 40
0.0669291338582676
  0
CIRCLE
  5
3C5
  8
0
  6
CONTINUOUS
 62
     7
 10
7.2286940156217367
 20
0.5329440015301606
 30
0.0
 40
0.0669291338582678
  0
CIRCLE
  5
3C6
  8
0
  6
CONTINUOUS
 62
     7
 10
7.2286940156217367
 20
1.0841251039301609
 30
0.0
 40
0.0669291338582678
  0
CIRCLE
  5
3C7
  8
0
  6
CONTINUOUS
 62
     7
 10
8.1342058266217379
 20
1.0841251039301609
 30
0.0
 40
0.0669291338582676
  0
CIRCLE
  5
3C8
  8
0
  6
CONTINUOUS
 62
     7
 10
8.1342058266217379
 20
1.7140463637301611
 30
0.0
 40
0.0669291338582676
  0
CIRCLE
  5
3C9
  8
0
  6
CONTINUOUS
 62
     7
 10
7.2286940156217367
 20
1.7140463637301611
 30
0.0
 40
0.0669291338582677
  0
CIRCLE
  5
3CA
  8
0
  6
CONTINUOUS
 62
     7
 10
7.2286940156217367
 20
2.2652274661301619
 30
0.0
 40
0.0669291338582678
  0
CIRCLE
  5
3CB
  8
0
  6
CONTINUOUS
 62
     7
 10
8.1342058266217379
 20
2.2652274661301619
 30
0.0
 40
0.0669291338582678
  0
LINE
  5
3CC
  8
0
  6
CONTINUOUS
 62
     7
 10
12.675653592821741
 20
0.5329440015301588
 30
0.0
 11
12.675653592821741
 21
2.2652274661301601
 31
0.0
  0
LINE
  5
3CD
  8
0
  6
CONTINUOUS
 62
     7
 10
6.953103464421738
 20
0.1392432141301603
 30
0.0
 11
12.28195280542174
 21
0.1392432141301585
 31
0.0
  0
LINE
  5
3CE
  8
0
  6
CONTINUOUS
 62
     7
 10
6.953103464421738
 20
0.1392432141301603
 30
0.0
 11
6.953103464421738
 21
2.6589282535301599
 31
0.0
  0
LINE
  5
3CF
  8
0
  6
CONTINUOUS
 62
     7
 10
6.953103464421738
 20
2.6589282535301599
 30
0.0
 11
12.28195280542174
 21
2.658928253530159
 31
0.0
  0
ARC
  5
3D0
  8
0
  6
CONTINUOUS
 62
     7
 10
12.28195280542174
 20
2.2652274661301601
 30
0.0
 40
0.3937007874015755
 50
0.0
 51
90.0
  0
ARC
  5
3D1
  8
0
  6
CONTINUOUS
 62
     7
 10
12.28195280542174
 20
0.5329440015301588
 30
0.0
 40
0.3937007874015732
 50
270.0
 51
0.0
  0
CIRCLE
  5
3E8
  8
0
  6
CONTINUOUS
 62
     7
 10
14.211713285936209
 20
3.588827665690093
 30
0.0
 40
0.0885826771653542
  0
CIRCLE
  5
3E9
  8
0
  6
CONTINUOUS
 62
     7
 10
15.78651643553621
 20
3.588827665690093
 30
0.0
 40
0.0885826771653542
  0
CIRCLE
  5
3EA
  8
0
  6
CONTINUOUS
 62
     7
 10
15.78651643553621
 20
4.3762292404900931
 30
0.0
 40
0.0885826771653543
  0
CIRCLE
  5
3EB
  8
0
  6
CONTINUOUS
 62
     7
 10
14.211713285936209
 20
4.3762292404900931
 30
0.0
 40
0.0885826771653543
  0
CIRCLE
  5
3EC
  8
0
  6
CONTINUOUS
 62
     7
 10
14.132973128436211
 20
0.4392213664900942
 30
0.0
 40
0.0669291338582667
  0
CIRCLE
  5
3ED
  8
0
  6
CONTINUOUS
 62
     7
 10
14.132973128436211
 20
1.344733177490093
 30
0.0
 40
0.0669291338582676
  0
CIRCLE
  5
3EE
  8
0
  6
CONTINUOUS
 62
     7
 10
14.68415423083621
 20
1.344733177490093
 30
0.0
 40
0.0669291338582676
  0
CIRCLE
  5
3EF
  8
0
  6
CONTINUOUS
 62
     7
 10
14.68415423083621
 20
0.4392213664900942
 30
0.0
 40
0.0669291338582667
  0
CIRCLE
  5
3F0
  8
0
  6
CONTINUOUS
 62
     7
 10
15.865256593036211
 20
0.4392213664900942
 30
0.0
 40
0.0669291338582667
  0
CIRCLE
  5
3F1
  8
0
  6
CONTINUOUS
 62
     7
 10
15.31407549063621
 20
0.4392213664900942
 30
0.0
 40
0.0669291338582667
  0
CIRCLE
  5
3F2
  8
0
  6
CONTINUOUS
 62
     7
 10
15.31407549063621
 20
1.344733177490093
 30
0.0
 40
0.0669291338582676
  0
CIRCLE
  5
3F3
  8
0
  6
CONTINUOUS
 62
     7
 10
15.865256593036211
 20
1.344733177490093
 30
0.0
 40
0.0669291338582676
  0
LINE
  5
3F4
  8
0
  6
CONTINUOUS
 62
     7
 10
15.85738257723621
 20
4.6911898703900929
 30
0.0
 11
14.14084714423621
 21
4.6911898703900929
 31
0.0
  0
ARC
  5
3F5
  8
0
  6
CONTINUOUS
 62
     7
 10
14.14084714423621
 20
4.2974890829900927
 30
0.0
 40
0.393700787401575
 50
90.0
 51
180.0
  0
LINE
  5
3F6
  8
0
  6
CONTINUOUS
 62
     7
 10
13.747146356836209
 20
4.2974890829900927
 30
0.0
 11
13.747146356836209
 21
0.1636308152900936
 31
0.0
  0
LINE
  5
3F7
  8
0
  6
CONTINUOUS
 62
     7
 10
16.251083364636209
 20
0.1636308152900936
 30
0.0
 11
13.747146356836209
 21
0.1636308152900936
 31
0.0
  0
LINE
  5
3F8
  8
0
  6
CONTINUOUS
 62
     7
 10
16.251083364636209
 20
4.2974890829900927
 30
0.0
 11
16.251083364636209
 21
0.1636308152900936
 31
0.0
  0
ARC
  5
3F9
  8
0
  6
CONTINUOUS
 62
     7
 10
15.85738257723621
 20
4.2974890829900927
 30
0.0
 40
0.393700787401575
 50
0.0
 51
90.0
  0
ENDSEC
  0
EOF
