  0
SECTION
  2
HEADER
  9
$ACADVER
  1
AC1009
  9
$INSBASE
 10
0.0
 20
0.0
 30
0.0
  9
$EXTMIN
 10
-4.6993283980524927
 20
-0.4125588147355029
 30
0.0
  9
$EXTMAX
 10
7.7600387636494093
 20
6.8358190283537548
 30
0.0
  9
$LIMMIN
 10
0.0
 20
0.0
  9
$LIMMAX
 10
12.0
 20
9.0
  9
$ORTHOMODE
 70
     0
  9
$REGENMODE
 70
     1
  9
$FILLMODE
 70
     1
  9
$QTEXTMODE
 70
     0
  9
$MIRRTEXT
 70
     1
  9
$DRAGMODE
 70
     2
  9
$LTSCALE
 40
1.0
  9
$OSMODE
 70
    37
  9
$ATTMODE
 70
     1
  9
$TEXTSIZE
 40
0.1377952756
  9
$TRACEWID
 40
0.05
  9
$TEXTSTYLE
  7
STANDARD
  9
$CLAYER
  8
0
  9
$CELTYPE
  6
BYLAYER
  9
$CECOLOR
 62
   256
  9
$DIMSCALE
 40
1.0
  9
$DIMASZ
 40
0.13
  9
$DIMEXO
 40
0.05
  9
$DIMDLI
 40
0.38
  9
$DIMRND
 40
0.0
  9
$DIMDLE
 40
0.0
  9
$DIMEXE
 40
0.125
  9
$DIMTP
 40
0.0
  9
$DIMTM
 40
0.0
  9
$DIMTXT
 40
0.1377952756
  9
$DIMCEN
 40
0.09
  9
$DIMTSZ
 40
0.0
  9
$DIMTOL
 70
     0
  9
$DIMLIM
 70
     0
  9
$DIMTIH
 70
     1
  9
$DIMTOH
 70
     1
  9
$DIMSE1
 70
     0
  9
$DIMSE2
 70
     0
  9
$DIMTAD
 70
     1
  9
$DIMZIN
 70
     0
  9
$DIMBLK
  1

  9
$DIMASO
 70
     1
  9
$DIMSHO
 70
     1
  9
$DIMPOST
  1

  9
$DIMAPOST
  1

  9
$DIMALT
 70
     0
  9
$DIMALTD
 70
     2
  9
$DIMALTF
 40
25.399999999999999
  9
$DIMLFAC
 40
1.0
  9
$DIMTOFL
 70
     0
  9
$DIMTVP
 40
0.0
  9
$DIMTIX
 70
     0
  9
$DIMSOXD
 70
     0
  9
$DIMSAH
 70
     0
  9
$DIMBLK1
  1

  9
$DIMBLK2
  1

  9
$DIMSTYLE
  2
STANDARD
  9
$DIMCLRD
 70
     0
  9
$DIMCLRE
 70
     0
  9
$DIMCLRT
 70
     0
  9
$DIMTFAC
 40
1.0
  9
$DIMGAP
 40
0.06
  9
$LUNITS
 70
     4
  9
$LUPREC
 70
     4
  9
$SKETCHINC
 40
0.1
  9
$FILLETRAD
 40
0.5
  9
$AUNITS
 70
     0
  9
$AUPREC
 70
     2
  9
$MENU
  1
.
  9
$ELEVATION
 40
0.0
  9
$PELEVATION
 40
0.0
  9
$THICKNESS
 40
0.0
  9
$LIMCHECK
 70
     0
  9
$BLIPMODE
 70
     0
  9
$CHAMFERA
 40
0.0
  9
$CHAMFERB
 40
0.0
  9
$SKPOLY
 70
     0
  9
$TDCREATE
 40
2457819.5002114242
  9
$TDUPDATE
 40
2457820.6230410072
  9
$TDINDWG
 40
0.0102071991
  9
$TDUSRTIMER
 40
0.0102071528
  9
$USRTIMER
 70
     1
  9
$ANGBASE
 50
0.0
  9
$ANGDIR
 70
     0
  9
$PDMODE
 70
     0
  9
$PDSIZE
 40
-1.0
  9
$PLINEWID
 40
0.0
  9
$COORDS
 70
     1
  9
$SPLFRAME
 70
     0
  9
$SPLINETYPE
 70
     6
  9
$SPLINESEGS
 70
     8
  9
$ATTDIA
 70
     1
  9
$ATTREQ
 70
     1
  9
$HANDLING
 70
     1
  9
$HANDSEED
  5
854
  9
$SURFTAB1
 70
     6
  9
$SURFTAB2
 70
     6
  9
$SURFTYPE
 70
     6
  9
$SURFU
 70
     6
  9
$SURFV
 70
     6
  9
$UCSNAME
  2

  9
$UCSORG
 10
0.0
 20
0.0
 30
0.0
  9
$UCSXDIR
 10
1.0
 20
0.0
 30
0.0
  9
$UCSYDIR
 10
0.0
 20
1.0
 30
0.0
  9
$PUCSNAME
  2

  9
$PUCSORG
 10
0.0
 20
0.0
 30
0.0
  9
$PUCSXDIR
 10
1.0
 20
0.0
 30
0.0
  9
$PUCSYDIR
 10
0.0
 20
1.0
 30
0.0
  9
$USERI1
 70
     0
  9
$USERI2
 70
     0
  9
$USERI3
 70
     0
  9
$USERI4
 70
     0
  9
$USERI5
 70
     0
  9
$USERR1
 40
0.0
  9
$USERR2
 40
0.0
  9
$USERR3
 40
0.0
  9
$USERR4
 40
0.0
  9
$USERR5
 40
0.0
  9
$WORLDVIEW
 70
     1
  9
$SHADEDGE
 70
     3
  9
$SHADEDIF
 70
    70
  9
$TILEMODE
 70
     1
  9
$MAXACTVP
 70
    64
  9
$PLIMCHECK
 70
     0
  9
$PEXTMIN
 10
1.0000000000000000E+020
 20
1.0000000000000000E+020
 30
1.0000000000000000E+020
  9
$PEXTMAX
 10
-1.0000000000000000E+020
 20
-1.0000000000000000E+020
 30
-1.0000000000000000E+020
  9
$PLIMMIN
 10
0.0
 20
0.0
  9
$PLIMMAX
 10
12.0
 20
9.0
  9
$UNITMODE
 70
     0
  9
$VISRETAIN
 70
     1
  9
$PLINEGEN
 70
     0
  9
$PSLTSCALE
 70
     1
  0
ENDSEC
  0
SECTION
  2
TABLES
  0
TABLE
  2
VPORT
 70
     1
  0
VPORT
  2
*ACTIVE
 70
     0
 10
0.0
 20
0.0
 11
1.0
 21
1.0
 12
1.0610591395951441
 22
2.942386003336964
 13
0.0
 23
0.0
 14
0.5
 24
0.5
 15
0.5
 25
0.5
 16
0.0
 26
0.0
 36
1.0
 17
0.0
 27
0.0
 37
0.0
 40
10.44821201105214
 41
1.856313497822931
 42
50.0
 43
0.0
 44
0.0
 50
0.0
 51
0.0
 71
     0
 72
   100
 73
     1
 74
     3
 75
     0
 76
     0
 77
     0
 78
     0
  0
ENDTAB
  0
TABLE
  2
LTYPE
 70
     7
  0
LTYPE
  2
CONTINUOUS
 70
     0
  3
Solid line
 72
    65
 73
     0
 40
0.0
  0
LTYPE
  2
HIDDEN
 70
     0
  3
Hidden __ __ __ __ __ __ __ __ __ __ __ __ __ __
 72
    65
 73
     2
 40
0.075
 49
0.05
 49
-0.025
  0
LTYPE
  2
PHANTOM
 70
     0
  3
Phantom ______  __  __  ______  __  __  ______
 72
    65
 73
     6
 40
0.5
 49
0.25
 49
-0.05
 49
0.05
 49
-0.05
 49
0.05
 49
-0.05
  0
LTYPE
  2
CENTER
 70
     0
  3
Center ____ _ ____ _ ____ _ ____ _ ____ _ ____
 72
    65
 73
     4
 40
0.4
 49
0.25
 49
-0.05
 49
0.05
 49
-0.05
  0
LTYPE
  2
CENTERX2
 70
     0
  3
Center (2x) ________  __  ________  __  _____
 72
    65
 73
     4
 40
0.8
 49
0.5
 49
-0.1
 49
0.1
 49
-0.1
  0
LTYPE
  2
DOT2
 70
     0
  3
Dot (.5x) ........................................
 72
    65
 73
     2
 40
0.025
 49
0.0
 49
-0.025
  0
ENDTAB
  0
TABLE
  2
LAYER
 70
     1
  0
LAYER
  2
0
 70
     0
 62
     7
  6
CONTINUOUS
  0
ENDTAB
  0
TABLE
  2
STYLE
 70
     3
  0
STYLE
  2
STANDARD
 70
     0
 40
0.0
 41
1.0
 50
0.0
 71
     0
 42
0.1377952756
  3
txt
  4

  0
STYLE
  2
ANNOTATIVE
 70
     0
 40
0.0
 41
1.0
 50
0.0
 71
     0
 42
0.2
  3
txt
  4

  0
STYLE
  2
SLDTEXTSTYLE0
 70
     0
 40
0.0
 41
0.7
 50
0.0
 71
     0
 42
0.1377952756
  3
TXT
  4

  0
ENDTAB
  0
TABLE
  2
VIEW
 70
     0
  0
ENDTAB
  0
TABLE
  2
UCS
 70
     0
  0
ENDTAB
  0
TABLE
  2
APPID
 70
     8
  0
APPID
  2
ACAD
 70
     0
  0
APPID
  2
ACADANNOTATIVE
 70
     0
  0
APPID
  2
ACAD_EXEMPT_FROM_CAD_STANDARDS
 70
     0
  0
APPID
  2
ACAD_NAV_VCDISPLAY
 70
     0
  0
APPID
  2
AECB_HALOED_LINE_OUTLINE_E
 70
     0
  0
APPID
  2
AECB_OSNAP_MEP
 70
     0
  0
APPID
  2
ACAD_MLEADERVER
 70
     0
  0
APPID
  2
AECB_HALOED_LINE_OUTLINE_0
 70
     0
  0
ENDTAB
  0
TABLE
  2
DIMSTYLE
 70
     3
  0
DIMSTYLE
  2
STANDARD
 70
     0
  3

  4

  5

  6

  7

 40
1.0
 41
0.18
 42
0.0625
 43
0.38
 44
0.18
 45
0.0
 46
0.0
 47
0.0
 48
0.0
140
0.18
141
0.09
142
0.0
143
25.399999999999999
144
1.0
145
0.0
146
1.0
147
0.09
 71
     0
 72
     0
 73
     1
 74
     1
 75
     0
 76
     0
 77
     0
 78
     0
170
     0
171
     2
172
     0
173
     0
174
     0
175
     0
176
     0
177
     0
178
     0
  0
DIMSTYLE
  2
ANNOTATIVE
 70
     0
  3

  4

  5

  6

  7

 40
1.0
 41
0.18
 42
0.0625
 43
0.38
 44
0.18
 45
0.0
 46
0.0
 47
0.0
 48
0.0
140
0.18
141
0.09
142
0.0
143
25.399999999999999
144
1.0
145
0.0
146
1.0
147
0.09
 71
     0
 72
     0
 73
     1
 74
     1
 75
     0
 76
     0
 77
     0
 78
     0
170
     0
171
     2
172
     0
173
     0
174
     0
175
     0
176
     0
177
     0
178
     0
  0
ENDTAB
  0
ENDSEC
  0
SECTION
  2
BLOCKS
  0
BLOCK
  8
0
  2
$MODEL_SPACE
 70
     0
 10
0.0
 20
0.0
 30
0.0
  3
$MODEL_SPACE
  1

  0
ENDBLK
  5
4DB
  8
0
  0
BLOCK
 67
     1
  8
0
  2
$PAPER_SPACE
 70
     0
 10
0.0
 20
0.0
 30
0.0
  3
$PAPER_SPACE
  1

  0
ENDBLK
  5
4D7
 67
     1
  8
0
  0
ENDSEC
  0
SECTION
  2
ENTITIES
  0
CIRCLE
  5
73
  8
0
  6
CONTINUOUS
 62
     7
 10
0.8360759897164463
 20
1.762075116264548
 30
0.0
 40
0.0196850393700787
  0
LINE
  5
74
  8
0
  6
CONTINUOUS
 62
     7
 10
2.2061547299164448
 20
0.5732140103645486
 30
0.0
 11
2.2061547299164448
 21
0.2660121241645488
 31
0.0
  0
LINE
  5
75
  8
0
  6
CONTINUOUS
 62
     7
 10
2.2061547299164448
 20
0.2660121241645488
 30
0.0
 11
3.623477564516445
 21
0.2660121241645488
 31
0.0
  0
LINE
  5
76
  8
0
  6
CONTINUOUS
 62
     7
 10
3.623477564516445
 20
0.2660121241645488
 30
0.0
 11
3.623477564516445
 21
0.5732140103645486
 31
0.0
  0
ARC
  5
77
  8
0
  6
CONTINUOUS
 62
     7
 10
4.2140287456164449
 20
0.5732140103645486
 30
0.0
 40
0.5905511811023624
 50
115.0
 51
180.0
  0
LINE
  5
78
  8
0
  6
CONTINUOUS
 62
     7
 10
3.9644510320164441
 20
1.1084351443645479
 30
0.0
 11
5.0601103616164442
 21
1.619349480564547
 31
0.0
  0
ARC
  5
79
  8
0
  6
CONTINUOUS
 62
     7
 10
4.9935563047164431
 20
1.762075116264548
 30
0.0
 40
0.1574803149606299
 50
294.99999999999989
 51
103.9320985976
  0
LINE
  5
7A
  8
0
  6
CONTINUOUS
 62
     7
 10
4.9556394818164451
 20
1.914922635564547
 30
0.0
 11
3.4572897924164452
 21
1.5432276277645469
 31
0.0
  0
ARC
  5
7B
  8
0
  6
CONTINUOUS
 62
     7
 10
3.3151017064164452
 20
2.1164058249645481
 30
0.0
 40
0.590551181102362
 50
270.0
 51
283.93209859759997
  0
LINE
  5
7C
  8
0
  6
CONTINUOUS
 62
     7
 10
3.3151017064164452
 20
1.5258546438645491
 30
0.0
 11
2.514530588016445
 21
1.5258546438645491
 31
0.0
  0
ARC
  5
7D
  8
0
  6
CONTINUOUS
 62
     7
 10
2.514530588016445
 20
2.1164058249645481
 30
0.0
 40
0.5905511811023623
 50
256.06790140240003
 51
270.0
  0
LINE
  5
7E
  8
0
  6
CONTINUOUS
 62
     7
 10
2.372342502016445
 20
1.5432276277645469
 30
0.0
 11
0.873992812616445
 21
1.914922635564547
 31
0.0
  0
ARC
  5
7F
  8
0
  6
CONTINUOUS
 62
     7
 10
0.8360759897164463
 20
1.762075116264548
 30
0.0
 40
0.1574803149606299
 50
76.067901402399954
 51
244.99999999999989
  0
LINE
  5
80
  8
0
  6
CONTINUOUS
 62
     7
 10
0.7695219328164465
 20
1.619349480564547
 30
0.0
 11
1.865181262416445
 21
1.1084351443645479
 31
0.0
  0
ARC
  5
81
  8
0
  6
CONTINUOUS
 62
     7
 10
1.615603548816444
 20
0.5732140103645486
 30
0.0
 40
0.5905511811023625
 50
0.0
 51
65.000000000000014
  0
LINE
  5
82
  8
0
  6
CONTINUOUS
 62
     7
 10
1.1132498775164461
 20
1.589386734164548
 30
0.0
 11
2.0153973864164452
 21
1.168708442064549
 31
0.0
  0
ARC
  5
83
  8
0
  6
CONTINUOUS
 62
     7
 10
1.1431626039164451
 20
1.6535347828645479
 30
0.0
 40
0.0707795404644623
 50
76.067901402399954
 51
244.99999999999989
  0
LINE
  5
84
  8
0
  6
CONTINUOUS
 62
     7
 10
2.0676328264164452
 20
1.497126687364549
 30
0.0
 11
1.1602043231164449
 21
1.7222321129645479
 31
0.0
  0
ARC
  5
85
  8
0
  6
CONTINUOUS
 62
     7
 10
2.0486744149164449
 20
1.420702927664548
 30
0.0
 40
0.078740157480315
 50
0.0
 51
76.067901402399954
  0
LINE
  5
86
  8
0
  6
CONTINUOUS
 62
     7
 10
2.1274145724164439
 20
1.240071259864548
 30
0.0
 11
2.1274145724164439
 21
1.420702927664548
 31
0.0
  0
ARC
  5
87
  8
0
  6
CONTINUOUS
 62
     7
 10
2.0486744149164449
 20
1.240071259864548
 30
0.0
 40
0.0787401574803151
 50
244.99999999999989
 51
0.0
  0
LINE
  5
88
  8
0
  6
CONTINUOUS
 62
     7
 10
2.5211153598164451
 20
0.5416026753645494
 30
0.0
 11
3.3085169346164451
 21
0.5416026753645494
 31
0.0
  0
ARC
  5
89
  8
0
  6
CONTINUOUS
 62
     7
 10
2.5211153598164451
 20
0.6203428328645489
 30
0.0
 40
0.078740157480315
 50
180.0
 51
270.0
  0
LINE
  5
8A
  8
0
  6
CONTINUOUS
 62
     7
 10
2.4423752023164451
 20
1.2502640926645481
 30
0.0
 11
2.4423752023164451
 21
0.6203428328645489
 31
0.0
  0
ARC
  5
8B
  8
0
  6
CONTINUOUS
 62
     7
 10
2.5211153598164451
 20
1.2502640926645481
 30
0.0
 40
0.078740157480315
 50
90.0
 51
180.0
  0
LINE
  5
8C
  8
0
  6
CONTINUOUS
 62
     7
 10
3.3085169346164451
 20
1.329004250164548
 30
0.0
 11
2.5211153598164451
 21
1.329004250164548
 31
0.0
  0
ARC
  5
8D
  8
0
  6
CONTINUOUS
 62
     7
 10
3.3085169346164451
 20
1.2502640926645481
 30
0.0
 40
0.078740157480315
 50
0.0
 51
90.0
  0
LINE
  5
8E
  8
0
  6
CONTINUOUS
 62
     7
 10
3.3872570921164451
 20
0.6203428328645489
 30
0.0
 11
3.3872570921164451
 21
1.2502640926645481
 31
0.0
  0
ARC
  5
8F
  8
0
  6
CONTINUOUS
 62
     7
 10
3.3085169346164451
 20
0.6203428328645489
 30
0.0
 40
0.078740157480315
 50
270.0
 51
0.0
  0
CIRCLE
  5
90
  8
0
  6
CONTINUOUS
 62
     7
 10
4.9935563047164431
 20
1.762075116264548
 30
0.0
 40
0.0196850393700787
  0
LINE
  5
91
  8
0
  6
CONTINUOUS
 62
     7
 10
4.6694279713164439
 20
1.7222321129645479
 30
0.0
 11
3.761999468016445
 21
1.497126687364549
 31
0.0
  0
ARC
  5
92
  8
0
  6
CONTINUOUS
 62
     7
 10
4.6864696905164447
 20
1.6535347828645479
 30
0.0
 40
0.0707795404644623
 50
294.99999999999989
 51
103.9320985976
  0
LINE
  5
93
  8
0
  6
CONTINUOUS
 62
     7
 10
3.814234908016445
 20
1.168708442064549
 30
0.0
 11
4.716382416916443
 21
1.589386734164548
 31
0.0
  0
ARC
  5
94
  8
0
  6
CONTINUOUS
 62
     7
 10
3.7809578795164449
 20
1.240071259864548
 30
0.0
 40
0.0787401574803151
 50
180.0
 51
294.99999999999989
  0
LINE
  5
95
  8
0
  6
CONTINUOUS
 62
     7
 10
3.7022177220164449
 20
1.420702927664548
 30
0.0
 11
3.7022177220164449
 21
1.240071259864548
 31
0.0
  0
ARC
  5
96
  8
0
  6
CONTINUOUS
 62
     7
 10
3.7809578795164449
 20
1.420702927664548
 30
0.0
 40
0.078740157480315
 50
103.9320985976
 51
180.0
  0
ARC
  5
3C7
  8
0
  6
CONTINUOUS
 62
     7
 10
3.7749276205030831
 20
2.0024814794871051
 30
0.0
 40
0.0590551181102362
 50
102.8743846201
 51
180.0
  0
LINE
  5
3C8
  8
0
  6
CONTINUOUS
 62
     7
 10
3.7158725024030832
 20
1.9905067117871049
 30
0.0
 11
3.7158725024030832
 21
2.0024814794871051
 31
0.0
  0
ARC
  5
3C9
  8
0
  6
CONTINUOUS
 62
     7
 10
3.656817384303082
 20
1.9905067117871049
 30
0.0
 40
0.0590551181102362
 50
270.0
 51
0.0
  0
LINE
  5
3CA
  8
0
  6
CONTINUOUS
 62
     7
 10
2.2001244709030829
 20
1.9314515936871051
 30
0.0
 11
3.656817384303082
 21
1.9314515936871051
 31
0.0
  0
ARC
  5
3CB
  8
0
  6
CONTINUOUS
 62
     7
 10
2.2001244709030829
 20
1.9905067117871049
 30
0.0
 40
0.0590551181102363
 50
180.0
 51
270.0
  0
LINE
  5
3CC
  8
0
  6
CONTINUOUS
 62
     7
 10
2.1410693528030822
 20
2.0024814794871051
 30
0.0
 11
2.1410693528030822
 21
1.9905067117871049
 31
0.0
  0
ARC
  5
3CD
  8
0
  6
CONTINUOUS
 62
     7
 10
2.0820142347030819
 20
2.0024814794871051
 30
0.0
 40
0.0590551181102362
 50
0.0
 51
77.125615379900012
  0
LINE
  5
3CE
  8
0
  6
CONTINUOUS
 62
     7
 10
1.090232454403083
 20
2.2897412147871048
 30
0.0
 11
2.0951725598030828
 21
2.0600520054871052
 31
0.0
  0
ARC
  5
3CF
  8
0
  6
CONTINUOUS
 62
     7
 10
1.125321321303083
 20
2.4432626172871048
 30
0.0
 40
0.15748031496063
 50
77.125615379900012
 51
257.12561537990001
  0
LINE
  5
3D0
  8
0
  6
CONTINUOUS
 62
     7
 10
2.4304459340030822
 20
2.3065045246871052
 30
0.0
 11
1.1604101882030831
 21
2.5967840197871048
 31
0.0
  0
ARC
  5
3D1
  8
0
  6
CONTINUOUS
 62
     7
 10
2.5620291847030821
 20
2.8822097840871059
 30
0.0
 40
0.5905511811023624
 50
257.12561537990001
 51
270.0
  0
LINE
  5
3D2
  8
0
  6
CONTINUOUS
 62
     7
 10
3.2949126705030829
 20
2.2916586029871051
 30
0.0
 11
2.5620291847030821
 21
2.2916586029871051
 31
0.0
  0
ARC
  5
3D3
  8
0
  6
CONTINUOUS
 62
     7
 10
3.2949126705030829
 20
2.8822097840871059
 30
0.0
 40
0.5905511811023624
 50
270.0
 51
282.87438462009999
  0
LINE
  5
3D4
  8
0
  6
CONTINUOUS
 62
     7
 10
4.6965316670030823
 20
2.5967840197871048
 30
0.0
 11
3.4264959212030819
 21
2.3065045246871052
 31
0.0
  0
ARC
  5
3D5
  8
0
  6
CONTINUOUS
 62
     7
 10
4.7316205339030821
 20
2.4432626172871048
 30
0.0
 40
0.1574803149606301
 50
282.87438462009999
 51
102.8743846201
  0
LINE
  5
3D6
  8
0
  6
CONTINUOUS
 62
     7
 10
3.7617692954030821
 20
2.0600520054871052
 30
0.0
 11
4.766709400803081
 21
2.2897412147871048
 31
0.0
  0
CIRCLE
  5
3D7
  8
0
  6
CONTINUOUS
 62
     7
 10
1.125321321303083
 20
2.4432626172871048
 30
0.0
 40
0.0196850393700789
  0
CIRCLE
  5
3D8
  8
0
  6
CONTINUOUS
 62
     7
 10
2.6135102977030829
 20
2.0889319086871052
 30
0.0
 40
0.0196850393700788
  0
CIRCLE
  5
3D9
  8
0
  6
CONTINUOUS
 62
     7
 10
3.2434315575030821
 20
2.0889319086871052
 30
0.0
 40
0.0196850393700788
  0
CIRCLE
  5
3DA
  8
0
  6
CONTINUOUS
 62
     7
 10
4.7316205339030821
 20
2.4432626172871048
 30
0.0
 40
0.0196850393700789
  0
POLYLINE
  5
76B
  8
0
 66
     1
 10
0.0
 20
0.0
 30
0.0
 70
     1
  0
VERTEX
  5
84C
  8
0
 10
-0.0209988941836699
 20
-0.0657763818873765
 30
0.0
  0
VERTEX
  5
84D
  8
0
 10
5.9790011058163302
 20
-0.0657763818873765
 30
0.0
  0
VERTEX
  5
84E
  8
0
 10
5.9790011058163302
 20
2.9342236181126231
 30
0.0
  0
VERTEX
  5
84F
  8
0
 10
-0.0209988941836699
 20
2.9342236181126231
 30
0.0
  0
SEQEND
  5
850
  8
0
  0
LINE
  5
77D
  8
0
  6
CONTINUOUS
 62
     7
 10
4.0538415489742947
 20
0.6203428328645489
 30
0.0
 11
4.4081722576742939
 21
0.6203428328645489
 31
0.0
  0
ARC
  5
77E
  8
0
  6
CONTINUOUS
 62
     7
 10
4.4081722576742939
 20
0.5809727541645489
 30
0.0
 40
0.0393700787401575
 50
0.0
 51
90.0
  0
LINE
  5
77F
  8
0
  6
CONTINUOUS
 62
     7
 10
4.4475423363742941
 20
0.5809727541645489
 30
0.0
 11
4.4475423363742941
 21
0.2660121241645488
 31
0.0
  0
LINE
  5
780
  8
0
  6
CONTINUOUS
 62
     7
 10
4.4475423363742941
 20
0.2660121241645488
 30
0.0
 11
4.801873045074295
 21
0.2660121241645488
 31
0.0
  0
LINE
  5
781
  8
0
  6
CONTINUOUS
 62
     7
 10
4.801873045074295
 20
0.2660121241645488
 30
0.0
 11
4.801873045074295
 21
0.5809727541645489
 31
0.0
  0
ARC
  5
782
  8
0
  6
CONTINUOUS
 62
     7
 10
4.8412431237742952
 20
0.5809727541645489
 30
0.0
 40
0.0393700787401575
 50
90.0
 51
180.0
  0
LINE
  5
783
  8
0
  6
CONTINUOUS
 62
     7
 10
4.8412431237742952
 20
0.6203428328645489
 30
0.0
 11
5.4317943048742938
 21
0.6203428328645489
 31
0.0
  0
LINE
  5
784
  8
0
  6
CONTINUOUS
 62
     7
 10
5.4317943048742938
 20
0.6203428328645489
 30
0.0
 11
5.4317943048742938
 21
0.6990829903645488
 31
0.0
  0
LINE
  5
785
  8
0
  6
CONTINUOUS
 62
     7
 10
5.4317943048742938
 20
0.6990829903645488
 30
0.0
 11
4.0538415489742947
 21
0.6990829903645488
 31
0.0
  0
LINE
  5
786
  8
0
  6
CONTINUOUS
 62
     7
 10
4.0538415489742947
 20
0.6990829903645488
 30
0.0
 11
4.0538415489742947
 21
0.6203428328645489
 31
0.0
  0
LINE
  5
795
  8
0
  6
CONTINUOUS
 62
     7
 10
0.3485895513637303
 20
0.6806680260827234
 30
0.0
 11
0.7029202600637304
 21
0.6806680260827234
 31
0.0
  0
ARC
  5
796
  8
0
  6
CONTINUOUS
 62
     7
 10
0.7029202600637304
 20
0.6412979473827234
 30
0.0
 40
0.0393700787401575
 50
0.0
 51
90.0
  0
LINE
  5
797
  8
0
  6
CONTINUOUS
 62
     7
 10
0.7422903387637306
 20
0.6412979473827234
 30
0.0
 11
0.7422903387637306
 21
0.3263373173827233
 31
0.0
  0
LINE
  5
798
  8
0
  6
CONTINUOUS
 62
     7
 10
0.7422903387637306
 20
0.3263373173827233
 30
0.0
 11
1.0966210474637299
 21
0.3263373173827233
 31
0.0
  0
LINE
  5
799
  8
0
  6
CONTINUOUS
 62
     7
 10
1.0966210474637299
 20
0.3263373173827233
 30
0.0
 11
1.0966210474637299
 21
0.6412979473827234
 31
0.0
  0
ARC
  5
79A
  8
0
  6
CONTINUOUS
 62
     7
 10
1.1359911261637301
 20
0.6412979473827234
 30
0.0
 40
0.0393700787401575
 50
90.0
 51
180.0
  0
LINE
  5
79B
  8
0
  6
CONTINUOUS
 62
     7
 10
1.1359911261637301
 20
0.6806680260827234
 30
0.0
 11
1.72654230726373
 21
0.6806680260827234
 31
0.0
  0
LINE
  5
79C
  8
0
  6
CONTINUOUS
 62
     7
 10
1.72654230726373
 20
0.6806680260827234
 30
0.0
 11
1.72654230726373
 21
0.7594081835827234
 31
0.0
  0
LINE
  5
79D
  8
0
  6
CONTINUOUS
 62
     7
 10
1.72654230726373
 20
0.7594081835827234
 30
0.0
 11
0.3485895513637303
 21
0.7594081835827234
 31
0.0
  0
LINE
  5
79E
  8
0
  6
CONTINUOUS
 62
     7
 10
0.3485895513637303
 20
0.7594081835827234
 30
0.0
 11
0.3485895513637303
 21
0.6806680260827234
 31
0.0
  0
ENDSEC
  0
EOF
